<svg width="203" height="45" viewBox="0 0 203 45" fill="none" xmlns="http://www.w3.org/2000/svg">
<path d="M7.3898 16.8341C8.0378 15.7061 8.9978 14.7701 10.2698 14.0261C11.5658 13.2581 13.0658 12.8741 14.7698 12.8741C16.5218 12.8741 18.1058 13.2941 19.5218 14.1341C20.9618 14.9741 22.0898 16.1621 22.9058 17.6981C23.7218 19.2101 24.1298 20.9741 24.1298 22.9901C24.1298 24.9821 23.7218 26.7581 22.9058 28.3181C22.0898 29.8781 20.9618 31.0901 19.5218 31.9541C18.1058 32.8181 16.5218 33.2501 14.7698 33.2501C13.0898 33.2501 11.6018 32.8781 10.3058 32.1341C9.0338 31.3661 8.0618 30.4181 7.3898 29.2901V42.2861H4.1138V13.1981H7.3898V16.8341ZM20.7818 22.9901C20.7818 21.5021 20.4818 20.2061 19.8818 19.1021C19.2818 17.9981 18.4658 17.1581 17.4338 16.5821C16.4258 16.0061 15.3098 15.7181 14.0858 15.7181C12.8858 15.7181 11.7698 16.0181 10.7378 16.6181C9.7298 17.1941 8.9138 18.0461 8.2898 19.1741C7.6898 20.2781 7.3898 21.5621 7.3898 23.0261C7.3898 24.5141 7.6898 25.8221 8.2898 26.9501C8.9138 28.0541 9.7298 28.9061 10.7378 29.5061C11.7698 30.0821 12.8858 30.3701 14.0858 30.3701C15.3098 30.3701 16.4258 30.0821 17.4338 29.5061C18.4658 28.9061 19.2818 28.0541 19.8818 26.9501C20.4818 25.8221 20.7818 24.5021 20.7818 22.9901ZM31.7179 6.28612V32.9261H28.4419V6.28612H31.7179ZM36.0773 22.9901C36.0773 20.9741 36.4853 19.2101 37.3013 17.6981C38.1173 16.1621 39.2333 14.9741 40.6493 14.1341C42.0893 13.2941 43.6853 12.8741 45.4373 12.8741C47.1653 12.8741 48.6653 13.2461 49.9373 13.9901C51.2093 14.7341 52.1573 15.6701 52.7813 16.7981V13.1981H56.0933V32.9261H52.7813V29.2541C52.1333 30.4061 51.1613 31.3661 49.8653 32.1341C48.5933 32.8781 47.1053 33.2501 45.4013 33.2501C43.6493 33.2501 42.0653 32.8181 40.6493 31.9541C39.2333 31.0901 38.1173 29.8781 37.3013 28.3181C36.4853 26.7581 36.0773 24.9821 36.0773 22.9901ZM52.7813 23.0261C52.7813 21.5381 52.4813 20.2421 51.8813 19.1381C51.2813 18.0341 50.4653 17.1941 49.4333 16.6181C48.4253 16.0181 47.3093 15.7181 46.0853 15.7181C44.8613 15.7181 43.7453 16.0061 42.7373 16.5821C41.7293 17.1581 40.9253 17.9981 40.3253 19.1021C39.7253 20.2061 39.4253 21.5021 39.4253 22.9901C39.4253 24.5021 39.7253 25.8221 40.3253 26.9501C40.9253 28.0541 41.7293 28.9061 42.7373 29.5061C43.7453 30.0821 44.8613 30.3701 46.0853 30.3701C47.3093 30.3701 48.4253 30.0821 49.4333 29.5061C50.4653 28.9061 51.2813 28.0541 51.8813 26.9501C52.4813 25.8221 52.7813 24.5141 52.7813 23.0261ZM71.2414 12.8381C73.6414 12.8381 75.5854 13.5701 77.0734 15.0341C78.5614 16.4741 79.3054 18.5621 79.3054 21.2981V32.9261H76.0654V21.7661C76.0654 19.7981 75.5734 18.2981 74.5894 17.2661C73.6054 16.2101 72.2614 15.6821 70.5574 15.6821C68.8294 15.6821 67.4494 16.2221 66.4174 17.3021C65.4094 18.3821 64.9054 19.9541 64.9054 22.0181V32.9261H61.6294V13.1981H64.9054V16.0061C65.5534 14.9981 66.4294 14.2181 67.5334 13.6661C68.6614 13.1141 69.8974 12.8381 71.2414 12.8381ZM88.6528 15.8981V27.5261C88.6528 28.4861 88.8568 29.1701 89.2648 29.5781C89.6728 29.9621 90.3808 30.1541 91.3888 30.1541H93.8008V32.9261H90.8488C89.0248 32.9261 87.6568 32.5061 86.7448 31.6661C85.8328 30.8261 85.3768 29.4461 85.3768 27.5261V15.8981H82.8208V13.1981H85.3768V8.23012H88.6528V13.1981H93.8008V15.8981H88.6528ZM101.046 13.1981V32.9261H97.77V13.1981H101.046ZM116.241 12.8381C118.641 12.8381 120.585 13.5701 122.073 15.0341C123.561 16.4741 124.305 18.5621 124.305 21.2981V32.9261H121.065V21.7661C121.065 19.7981 120.573 18.2981 119.589 17.2661C118.605 16.2101 117.261 15.6821 115.557 15.6821C113.829 15.6821 112.449 16.2221 111.417 17.3021C110.409 18.3821 109.905 19.9541 109.905 22.0181V32.9261H106.629V13.1981H109.905V16.0061C110.553 14.9981 111.429 14.2181 112.533 13.6661C113.661 13.1141 114.897 12.8381 116.241 12.8381ZM137.793 12.8741C139.497 12.8741 140.985 13.2461 142.257 13.9901C143.553 14.7341 144.513 15.6701 145.137 16.7981V13.1981H148.449V33.3581C148.449 35.1581 148.065 36.7541 147.297 38.1461C146.529 39.5621 145.425 40.6661 143.985 41.4581C142.569 42.2501 140.913 42.6461 139.017 42.6461C136.425 42.6461 134.265 42.0341 132.537 40.8101C130.809 39.5861 129.789 37.9181 129.477 35.8061H132.717C133.077 37.0061 133.821 37.9661 134.949 38.6861C136.077 39.4301 137.433 39.8021 139.017 39.8021C140.817 39.8021 142.281 39.2381 143.409 38.1101C144.561 36.9821 145.137 35.3981 145.137 33.3581V29.2181C144.489 30.3701 143.529 31.3301 142.257 32.0981C140.985 32.8661 139.497 33.2501 137.793 33.2501C136.041 33.2501 134.445 32.8181 133.005 31.9541C131.589 31.0901 130.473 29.8781 129.657 28.3181C128.841 26.7581 128.433 24.9821 128.433 22.9901C128.433 20.9741 128.841 19.2101 129.657 17.6981C130.473 16.1621 131.589 14.9741 133.005 14.1341C134.445 13.2941 136.041 12.8741 137.793 12.8741ZM145.137 23.0261C145.137 21.5381 144.837 20.2421 144.237 19.1381C143.637 18.0341 142.821 17.1941 141.789 16.6181C140.781 16.0181 139.665 15.7181 138.441 15.7181C137.217 15.7181 136.101 16.0061 135.093 16.5821C134.085 17.1581 133.281 17.9981 132.681 19.1021C132.081 20.2061 131.781 21.5021 131.781 22.9901C131.781 24.5021 132.081 25.8221 132.681 26.9501C133.281 28.0541 134.085 28.9061 135.093 29.5061C136.101 30.0821 137.217 30.3701 138.441 30.3701C139.665 30.3701 140.781 30.0821 141.789 29.5061C142.821 28.9061 143.637 28.0541 144.237 26.9501C144.837 25.8221 145.137 24.5141 145.137 23.0261ZM155.029 33.1421C154.405 33.1421 153.877 32.9261 153.445 32.4941C153.013 32.0621 152.797 31.5341 152.797 30.9101C152.797 30.2861 153.013 29.7581 153.445 29.3261C153.877 28.8941 154.405 28.6781 155.029 28.6781C155.629 28.6781 156.133 28.8941 156.541 29.3261C156.973 29.7581 157.189 30.2861 157.189 30.9101C157.189 31.5341 156.973 32.0621 156.541 32.4941C156.133 32.9261 155.629 33.1421 155.029 33.1421ZM164.819 13.1981V32.9261H161.543V13.1981H164.819ZM179.007 33.2501C177.159 33.2501 175.479 32.8301 173.967 31.9901C172.479 31.1501 171.303 29.9621 170.439 28.4261C169.599 26.8661 169.179 25.0661 169.179 23.0261C169.179 21.0101 169.611 19.2341 170.475 17.6981C171.363 16.1381 172.563 14.9501 174.075 14.1341C175.587 13.2941 177.279 12.8741 179.151 12.8741C181.023 12.8741 182.715 13.2941 184.227 14.1341C185.739 14.9501 186.927 16.1261 187.791 17.6621C188.679 19.1981 189.123 20.9861 189.123 23.0261C189.123 25.0661 188.667 26.8661 187.755 28.4261C186.867 29.9621 185.655 31.1501 184.119 31.9901C182.583 32.8301 180.879 33.2501 179.007 33.2501ZM179.007 30.3701C180.183 30.3701 181.287 30.0941 182.319 29.5421C183.351 28.9901 184.179 28.1621 184.803 27.0581C185.451 25.9541 185.775 24.6101 185.775 23.0261C185.775 21.4421 185.463 20.0981 184.839 18.9941C184.215 17.8901 183.399 17.0741 182.391 16.5461C181.383 15.9941 180.291 15.7181 179.115 15.7181C177.915 15.7181 176.811 15.9941 175.803 16.5461C174.819 17.0741 174.027 17.8901 173.427 18.9941C172.827 20.0981 172.527 21.4421 172.527 23.0261C172.527 24.6341 172.815 25.9901 173.391 27.0941C173.991 28.1981 174.783 29.0261 175.767 29.5781C176.751 30.1061 177.831 30.3701 179.007 30.3701Z" fill="#50624B"/>
<path d="M56 8H39V10H56V8Z" fill="#28C274"/>
<path d="M105.128 5.52936C103.415 6.43933 103.537 8.30842 102.337 9.15182C101.434 9.7866 100.159 9.46512 99.4225 9.19205C99.4225 9.19205 98.9231 9.76275 98.5649 10.5236C98.4449 10.7788 97.9184 10.4976 98.0108 10.2815C99.1819 7.54548 103.166 6.18051 103.166 6.18051C103.166 6.18051 100.355 6.07264 98.476 8.29525C98.4257 7.78757 98.3423 6.41406 99.7973 5.57172C101.77 4.42855 105.527 5.31717 105.128 5.52936Z" fill="#28C274"/>
<path d="M169.128 5.52936C167.415 6.43933 167.537 8.30842 166.337 9.15182C165.434 9.7866 164.159 9.46512 163.423 9.19205C163.423 9.19205 162.923 9.76275 162.565 10.5236C162.445 10.7788 161.918 10.4976 162.011 10.2815C163.182 7.54548 167.166 6.18051 167.166 6.18051C167.166 6.18051 164.355 6.07264 162.476 8.29525C162.426 7.78757 162.342 6.41406 163.797 5.57172C165.77 4.42855 169.527 5.31717 169.128 5.52936Z" fill="#28C274"/>
</svg>
